<?xml version="1.0" encoding="utf-8"?>
<svg width="1000px" height="1000px" viewBox="0 0 1000 1000" version="1.1" xmlns:xlink="http://www.w3.org/1999/xlink" xmlns="http://www.w3.org/2000/svg">
  <defs>
    <filter filterUnits="userSpaceOnUse" color-interpolation-filters="sRGB" id="filter_1">
      <feFlood flood-opacity="0" result="BackgroundImageFix" />
      <feColorMatrix in="SourceAlpha" type="matrix" values="0 0 0 0 0 0 0 0 0 0 0 0 0 0 0 0 0 0 128 0" />
      <feOffset dx="0" dy="2" />
      <feGaussianBlur stdDeviation="2" />
      <feColorMatrix type="matrix" values="0 0 0 0 0.39215687 0 0 0 0 0.39215687 0 0 0 0 0.39215687 0 0 0 0.49803922 0" />
      <feBlend mode="normal" in2="BackgroundImageFix" result="effect0_dropShadow" />
      <feBlend mode="normal" in="SourceGraphic" in2="effect0_dropShadow" result="shape" />
    </filter>
  </defs>
  <g id="Group-3">
    <path d="M943 0C974.484 0 1000 25.5155 1000 57L1000 943C1000 974.484 974.484 1000 943 1000L57 1000C25.5155 1000 0 974.484 0 943L0 57C0 25.5155 25.5155 0 57 0L943 0Z" id="Rectangle" fill="#054F35" stroke="none" />
    <path d="M940 28C957.123 28 971 41.8768 971 59L971 941C971 958.123 957.123 972 940 972L60 972C42.8768 972 29 958.123 29 941L29 59C29 41.8768 42.8768 28 60 28L940 28Z" id="Rectangle-Copy" fill="#213C39" stroke="none" />
    <path d="M454.882 606.409C454.882 606.409 445.209 619.848 432.122 631.521C419.035 643.194 402.534 653.1 402.534 653.1C402.534 653.1 389.857 661.578 372.657 666.973C355.457 672.368 333.733 674.68 333.733 674.68L297.837 674.68L267.924 663.89L240.408 653.1L202.114 623.813L173.697 580.654L161.731 552.174L157.244 520.538L157.244 478.068L164.723 441.926L179.679 408.015L197.627 383.352L219.318 363.314L246.984 343.275C246.984 343.275 262.102 336.339 277.432 332.485C292.763 328.632 308.307 327.861 308.307 327.861L337.125 327.861L357.664 329.402L385.783 338.651L415.995 354.065L460.418 396.765L680.728 623.813L849.738 451.174L849.738 761L932 761L932 240L680.728 498.958L514.709 327.861L469.839 287.153L435.53 265.462L399.542 249.249L351.07 240L287.404 240C287.404 240 268.307 241.927 246.984 249.249C225.662 256.57 202.114 269.287 202.114 269.287L161.731 297.033L125.835 335.568L98.4094 381.687L79.4697 423.429L69 474.365L69 520.538L82.2397 579.798L111.433 645.108L149.766 687.012L173.697 707.806L202.114 728.63L235.73 744.044L267.924 753.293L300.563 760.191L333.733 761L382.837 753.391L426.244 739.191C426.244 739.191 442.594 729.967 457.439 720.247C472.285 710.528 485.627 700.313 485.627 700.313C485.627 700.313 498.586 688.446 510.156 675.351C521.726 662.256 531.907 647.935 531.907 647.935L546.414 617.584L564.066 580.654L573.04 520.538C573.04 520.538 287.404 520.538 287.404 520.538C287.404 520.538 363.282 606.408 363.282 606.408L454.882 606.409Z" id="Line" fill="#07A872" fill-rule="evenodd" stroke="none" filter="url(#filter_1)" />
  </g>
</svg>