<?xml version="1.0" encoding="utf-8"?>
<svg width="511.9812px" height="512.02203px" viewBox="0 0 511.9812 512.02203" version="1.1" xmlns:xlink="http://www.w3.org/1999/xlink" xmlns="http://www.w3.org/2000/svg">
  <defs>
    <linearGradient gradientUnits="objectBoundingBox" x1="0.27729636" y1="0.49704126" x2="1.032929" y2="0.74556184" id="gradient_1">
      <stop offset="11.924351%" stop-color="#97C1DE" />
      <stop offset="67.14713%" stop-color="#12AAFF" />
    </linearGradient>
    <filter filterUnits="userSpaceOnUse" color-interpolation-filters="sRGB" id="filter_1">
      <feFlood flood-opacity="0" result="BackgroundImageFix" />
      <feColorMatrix in="SourceAlpha" type="matrix" values="0 0 0 0 0 0 0 0 0 0 0 0 0 0 0 0 0 0 128 0" />
      <feOffset dx="0" dy="2" />
      <feGaussianBlur stdDeviation="2" />
      <feColorMatrix type="matrix" values="0 0 0 0 0.39215687 0 0 0 0 0.39215687 0 0 0 0 0.39215687 0 0 0 0.49803922 0" />
      <feBlend mode="normal" in2="BackgroundImageFix" result="effect0_dropShadow" />
      <feBlend mode="normal" in="SourceGraphic" in2="effect0_dropShadow" result="shape" />
    </filter>
  </defs>
  <g id="Group-2">
    <g id="Group">
      <path d="M253.121 1.56548L496.112 123.071Q496.329 123.179 496.537 123.302Q496.746 123.425 496.946 123.562Q497.145 123.7 497.335 123.85Q497.525 124.001 497.704 124.164Q497.882 124.328 498.05 124.503Q498.217 124.679 498.371 124.865Q498.526 125.052 498.667 125.249Q498.808 125.445 498.936 125.652Q499.063 125.858 499.176 126.072Q499.289 126.286 499.387 126.508Q499.484 126.73 499.566 126.958Q499.649 127.186 499.715 127.419Q499.781 127.652 499.831 127.889Q499.881 128.126 499.914 128.366Q499.948 128.606 499.964 128.848Q499.981 129.089 499.981 129.332L499.981 370.692Q499.981 370.934 499.964 371.176Q499.948 371.417 499.914 371.657Q499.881 371.897 499.831 372.134Q499.781 372.371 499.715 372.605Q499.649 372.838 499.566 373.066Q499.484 373.293 499.387 373.515Q499.289 373.737 499.176 373.951Q499.063 374.166 498.936 374.372Q498.808 374.578 498.667 374.775Q498.526 374.971 498.371 375.158Q498.217 375.345 498.05 375.52Q497.882 375.695 497.704 375.859Q497.525 376.022 497.335 376.173Q497.145 376.324 496.946 376.461Q496.746 376.598 496.537 376.721Q496.329 376.844 496.112 376.953L253.121 498.457Q252.758 498.638 252.376 498.777Q251.994 498.915 251.599 499.008Q251.204 499.102 250.8 499.149Q250.397 499.196 249.991 499.196Q249.584 499.196 249.181 499.149Q248.778 499.102 248.382 499.008Q247.987 498.915 247.605 498.777Q247.223 498.638 246.86 498.457L3.86938 376.953Q3.65268 376.844 3.44399 376.721Q3.2353 376.598 3.03562 376.461Q2.83595 376.324 2.64623 376.173Q2.45652 376.022 2.27768 375.859Q2.09884 375.695 1.93172 375.52Q1.76461 375.345 1.61003 375.158Q1.45544 374.971 1.31413 374.775Q1.17281 374.578 1.04544 374.372Q0.918072 374.166 0.805256 373.951Q0.692439 373.737 0.594717 373.515Q0.496995 373.293 0.414834 373.065Q0.332674 372.838 0.266469 372.605Q0.200264 372.371 0.150331 372.134Q0.100397 371.897 0.0669753 371.657Q0.0335532 371.417 0.016802 371.176Q5.08366e-05 370.934 5.07865e-05 370.692L8.94257e-07 129.332Q8.44175e-07 129.09 0.0167518 128.848Q0.0335027 128.606 0.0669245 128.366Q0.100346 128.126 0.150279 127.889Q0.200211 127.652 0.266416 127.419Q0.33262 127.186 0.41478 126.958Q0.49694 126.73 0.594661 126.508Q0.692382 126.287 0.805198 126.072Q0.918013 125.858 1.04538 125.652Q1.17275 125.446 1.31407 125.249Q1.45538 125.052 1.60996 124.866Q1.76455 124.679 1.93166 124.504Q2.09877 124.328 2.27761 124.165Q2.45645 124.001 2.64616 123.851Q2.83587 123.7 3.03555 123.563Q3.23523 123.426 3.44391 123.302Q3.6526 123.179 3.86929 123.071L246.86 1.56548Q247.223 1.38382 247.605 1.2454Q247.987 1.10698 248.382 1.01365Q248.778 0.920325 249.181 0.873347Q249.584 0.826368 249.991 0.826368Q250.397 0.826367 250.8 0.873346Q251.204 0.920324 251.599 1.01365Q251.994 1.10698 252.376 1.2454Q252.758 1.38382 253.121 1.56548L253.121 1.56548Z" id="Polygon" fill="#FFFFFF" fill-rule="evenodd" stroke="none" filter="url(#filter_1)" />
      <path d="M253.148 17.2188L478.281 130.878Q478.496 130.987 478.704 131.11Q478.911 131.233 479.11 131.371Q479.308 131.508 479.497 131.659Q479.686 131.81 479.863 131.973Q480.041 132.137 480.207 132.312Q480.373 132.487 480.527 132.673Q480.68 132.86 480.821 133.056Q480.961 133.252 481.088 133.458Q481.214 133.664 481.326 133.878Q481.438 134.091 481.536 134.313Q481.633 134.534 481.714 134.761Q481.796 134.988 481.862 135.22Q481.927 135.453 481.977 135.689Q482.026 135.925 482.06 136.164Q482.093 136.404 482.109 136.644Q482.126 136.885 482.126 137.127L482.126 362.897Q482.126 363.139 482.11 363.38Q482.093 363.621 482.06 363.86Q482.027 364.099 481.977 364.335Q481.927 364.571 481.862 364.804Q481.796 365.036 481.714 365.263Q481.633 365.491 481.536 365.712Q481.438 365.933 481.326 366.147Q481.214 366.36 481.088 366.566Q480.961 366.772 480.821 366.968Q480.681 367.164 480.527 367.351Q480.373 367.537 480.207 367.712Q480.041 367.888 479.863 368.051Q479.686 368.214 479.497 368.365Q479.309 368.516 479.11 368.653Q478.911 368.791 478.704 368.914Q478.496 369.037 478.281 369.146L253.148 482.804Q252.782 482.989 252.398 483.129Q252.013 483.27 251.615 483.365Q251.216 483.46 250.809 483.508Q250.403 483.555 249.993 483.555Q249.584 483.555 249.177 483.508Q248.77 483.46 248.372 483.365Q247.973 483.27 247.589 483.129Q247.204 482.989 246.838 482.804L21.7034 369.146Q21.4879 369.037 21.2804 368.914Q21.0728 368.791 20.8743 368.653Q20.6758 368.516 20.4872 368.365Q20.2986 368.214 20.1209 368.051Q19.9431 367.888 19.777 367.712Q19.611 367.537 19.4574 367.351Q19.3038 367.164 19.1634 366.968Q19.023 366.772 18.8964 366.566Q18.7699 366.36 18.6578 366.147Q18.5458 365.933 18.4487 365.712Q18.3516 365.491 18.27 365.263Q18.1884 365.036 18.1227 364.804Q18.0569 364.571 18.0073 364.335Q17.9577 364.099 17.9245 363.86Q17.8914 363.621 17.8747 363.38Q17.8581 363.139 17.8581 362.897L17.858 137.127Q17.858 136.885 17.8746 136.644Q17.8913 136.404 17.9244 136.164Q17.9576 135.925 18.0072 135.689Q18.0568 135.453 18.1226 135.22Q18.1883 134.988 18.2699 134.761Q18.3515 134.534 18.4486 134.313Q18.5457 134.091 18.6577 133.878Q18.7698 133.664 18.8963 133.458Q19.0229 133.252 19.1632 133.056Q19.3037 132.86 19.4573 132.673Q19.6109 132.487 19.7769 132.312Q19.943 132.137 20.1207 131.973Q20.2985 131.81 20.4871 131.659Q20.6757 131.508 20.8742 131.371Q21.0727 131.233 21.2802 131.11Q21.4877 130.987 21.7033 130.878L246.838 17.2188Q247.204 17.0342 247.589 16.8935Q247.973 16.7528 248.372 16.658Q248.77 16.5631 249.177 16.5153Q249.584 16.4676 249.993 16.4676Q250.403 16.4676 250.809 16.5153Q251.216 16.5631 251.615 16.658Q252.013 16.7528 252.398 16.8935Q252.782 17.0342 253.148 17.2188L253.148 17.2188Z" id="Polygon-Copy" fill="#213147" fill-rule="evenodd" stroke="none" filter="url(#filter_1)" />
    </g>
    <path d="M223.433 299.964C223.433 299.964 218.978 305.346 212.952 310.02C206.926 314.694 199.327 318.661 199.327 318.661C199.327 318.661 193.49 322.056 185.569 324.217C177.649 326.377 167.646 327.303 167.646 327.303L151.116 327.303L137.341 322.982L124.671 318.661L107.037 306.934L93.9512 289.651L88.4413 278.246L86.3751 265.578L86.3751 248.571L89.8188 234.098L96.7061 220.518L104.971 210.642L114.959 202.618L127.699 194.593C127.699 194.593 134.66 191.816 141.72 190.272C148.779 188.729 155.937 188.421 155.937 188.421L169.207 188.421L178.665 189.038L191.614 192.741L205.526 198.914L225.982 216.013L327.431 306.934L405.258 237.801L405.258 361.869L443.138 361.869L443.138 153.237L327.431 256.936L250.982 188.421L230.32 172.119L214.522 163.433L197.95 156.941L175.629 153.237L146.312 153.237C146.312 153.237 137.518 154.009 127.699 156.941C117.88 159.873 107.037 164.965 107.037 164.965L88.4413 176.076L71.9117 191.507L59.2825 209.975L50.561 226.691L45.7399 247.088L45.7399 265.578L51.8366 289.308L65.2795 315.461L82.9315 332.241L93.9512 340.568L107.037 348.907L122.517 355.08L137.341 358.783L152.371 361.545L167.646 361.869L190.257 358.822L210.245 353.136C210.245 353.136 217.774 349.442 224.61 345.55C231.447 341.658 237.59 337.568 237.59 337.568C237.59 337.568 243.558 332.815 248.885 327.572C254.213 322.328 258.902 316.593 258.902 316.593L265.582 304.439L273.71 289.651L277.843 265.578C277.843 265.578 146.312 265.578 146.312 265.578C146.312 265.578 181.252 299.964 181.252 299.964L223.433 299.964Z" id="Line" fill="url(#gradient_1)" style="mix-blend-mode: color-burn;" fill-rule="evenodd" stroke="none" filter="url(#filter_1)" />
  </g>
</svg>