<?xml version="1.0" encoding="utf-8"?>
<svg width="450.98584px" height="512.02203px" viewBox="0 0 450.98584 512.02203" version="1.1" xmlns:xlink="http://www.w3.org/1999/xlink" xmlns="http://www.w3.org/2000/svg">
  <defs>
    <linearGradient gradientUnits="objectBoundingBox" x1="0.27729636" y1="0.49704126" x2="1.032929" y2="0.74556184" id="gradient_1">
      <stop offset="11.924351%" stop-color="#97C1DE" />
      <stop offset="67.14713%" stop-color="#12AAFF" />
    </linearGradient>
    <filter filterUnits="userSpaceOnUse" color-interpolation-filters="sRGB" id="filter_1">
      <feFlood flood-opacity="0" result="BackgroundImageFix" />
      <feColorMatrix in="SourceAlpha" type="matrix" values="0 0 0 0 0 0 0 0 0 0 0 0 0 0 0 0 0 0 128 0" />
      <feOffset dx="0" dy="2" />
      <feGaussianBlur stdDeviation="2" />
      <feColorMatrix type="matrix" values="0 0 0 0 0.39215687 0 0 0 0 0.39215687 0 0 0 0 0.39215687 0 0 0 0.49803922 0" />
      <feBlend mode="normal" in2="BackgroundImageFix" result="effect0_dropShadow" />
      <feBlend mode="normal" in="SourceGraphic" in2="effect0_dropShadow" result="shape" />
    </filter>
  </defs>
  <g id="Group-2">
    <g id="Group">
      <path d="M222.957 1.97295L435.45 122.992Q435.65 123.106 435.843 123.233Q436.035 123.36 436.218 123.499Q436.402 123.638 436.576 123.79Q436.75 123.941 436.914 124.103Q437.077 124.265 437.23 124.438Q437.383 124.61 437.523 124.793Q437.664 124.975 437.793 125.166Q437.922 125.357 438.038 125.557Q438.153 125.756 438.256 125.962Q438.358 126.169 438.447 126.381Q438.536 126.594 438.61 126.812Q438.685 127.03 438.745 127.253Q438.805 127.475 438.85 127.701Q438.895 127.927 438.925 128.156Q438.955 128.384 438.971 128.614Q438.986 128.844 438.986 129.075L438.986 370.95Q438.986 371.18 438.971 371.41Q438.956 371.64 438.925 371.868Q438.895 372.097 438.85 372.323Q438.805 372.549 438.745 372.771Q438.685 372.994 438.61 373.212Q438.536 373.43 438.447 373.643Q438.358 373.855 438.256 374.062Q438.153 374.268 438.038 374.467Q437.922 374.667 437.793 374.858Q437.665 375.049 437.524 375.231Q437.383 375.414 437.23 375.586Q437.077 375.759 436.914 375.921Q436.75 376.083 436.576 376.235Q436.402 376.386 436.218 376.525Q436.035 376.664 435.843 376.791Q435.65 376.918 435.45 377.032L222.957 498.049Q222.76 498.161 222.556 498.26Q222.353 498.36 222.143 498.445Q221.933 498.531 221.718 498.603Q221.504 498.675 221.285 498.733Q221.066 498.791 220.843 498.835Q220.621 498.879 220.396 498.908Q220.172 498.937 219.946 498.952Q219.719 498.966 219.493 498.966Q219.266 498.966 219.04 498.952Q218.814 498.937 218.589 498.908Q218.365 498.879 218.142 498.835Q217.92 498.791 217.701 498.733Q217.482 498.675 217.267 498.603Q217.052 498.531 216.843 498.445Q216.633 498.36 216.429 498.26Q216.226 498.161 216.029 498.049L3.53587 377.032Q3.33562 376.918 3.14331 376.791Q2.95099 376.664 2.76744 376.525Q2.58389 376.386 2.40991 376.235Q2.23592 376.083 2.07225 375.921Q1.90858 375.759 1.75593 375.586Q1.60328 375.414 1.46232 375.231Q1.32136 375.049 1.1927 374.858Q1.06403 374.667 0.948218 374.467Q0.832406 374.268 0.729948 374.062Q0.627491 373.855 0.538831 373.643Q0.450171 373.43 0.375694 373.212Q0.301216 372.994 0.241244 372.771Q0.181271 372.549 0.136063 372.323Q0.0908546 372.097 0.0606065 371.868Q0.0303584 371.64 0.0152016 371.41Q4.46794e-05 371.18 4.46375e-05 370.95L7.38502e-07 129.075Q6.96677e-07 128.845 0.0151572 128.615Q0.0303138 128.385 0.0605612 128.156Q0.0908087 127.928 0.136016 127.702Q0.181224 127.476 0.241195 127.253Q0.301167 127.031 0.375643 126.813Q0.450119 126.595 0.538777 126.382Q0.627435 126.169 0.729891 125.963Q0.832347 125.757 0.948158 125.557Q1.06397 125.358 1.19263 125.167Q1.32129 124.976 1.46225 124.793Q1.60321 124.611 1.75586 124.438Q1.9085 124.266 2.07217 124.104Q2.23584 123.941 2.40982 123.79Q2.58381 123.639 2.76735 123.5Q2.9509 123.36 3.14321 123.233Q3.33552 123.106 3.53577 122.992L216.029 1.97295Q216.226 1.86082 216.429 1.76166Q216.633 1.66249 216.843 1.57671Q217.052 1.49093 217.267 1.41889Q217.482 1.34685 217.701 1.28885Q217.92 1.23086 218.142 1.18714Q218.365 1.14343 218.589 1.11419Q218.814 1.08495 219.04 1.07029Q219.266 1.05564 219.493 1.05564Q219.719 1.05564 219.946 1.07029Q220.172 1.08494 220.396 1.11419Q220.621 1.14343 220.843 1.18714Q221.066 1.23085 221.285 1.28885Q221.504 1.34685 221.719 1.41889Q221.933 1.49093 222.143 1.57671Q222.353 1.66249 222.557 1.76165Q222.76 1.86081 222.957 1.97294L222.957 1.97295Z" id="Polygon" fill="#FFFFFF" fill-rule="evenodd" stroke="none" filter="url(#filter_1)" />
      <path d="M222.984 17.6325L419.798 130.801Q419.997 130.915 420.188 131.043Q420.379 131.17 420.562 131.309Q420.744 131.449 420.917 131.6Q421.09 131.751 421.252 131.913Q421.415 132.075 421.566 132.248Q421.718 132.42 421.858 132.602Q421.998 132.784 422.125 132.975Q422.253 133.165 422.368 133.364Q422.483 133.563 422.585 133.769Q422.686 133.974 422.774 134.186Q422.862 134.398 422.936 134.616Q423.01 134.833 423.07 135.055Q423.129 135.276 423.174 135.501Q423.219 135.727 423.249 135.954Q423.279 136.182 423.294 136.411Q423.309 136.64 423.309 136.869L423.309 363.157Q423.309 363.386 423.294 363.615Q423.279 363.844 423.249 364.072Q423.219 364.3 423.174 364.525Q423.129 364.75 423.07 364.971Q423.01 365.193 422.936 365.41Q422.862 365.628 422.774 365.84Q422.686 366.052 422.585 366.258Q422.483 366.463 422.368 366.662Q422.253 366.861 422.125 367.052Q421.998 367.242 421.858 367.424Q421.718 367.606 421.566 367.779Q421.415 367.951 421.252 368.113Q421.09 368.275 420.917 368.426Q420.744 368.577 420.562 368.717Q420.379 368.856 420.188 368.984Q419.997 369.111 419.798 369.225L222.984 482.391Q222.786 482.504 222.581 482.605Q222.376 482.706 222.165 482.793Q221.954 482.88 221.738 482.953Q221.521 483.026 221.301 483.085Q221.08 483.144 220.856 483.189Q220.632 483.233 220.406 483.263Q220.179 483.292 219.951 483.307Q219.723 483.322 219.495 483.322Q219.267 483.322 219.039 483.307Q218.811 483.292 218.584 483.263Q218.358 483.233 218.134 483.189Q217.91 483.144 217.689 483.085Q217.469 483.026 217.252 482.953Q217.036 482.88 216.825 482.793Q216.614 482.706 216.409 482.605Q216.204 482.504 216.006 482.391L19.1903 369.225Q18.9913 369.111 18.8002 368.984Q18.6091 368.856 18.4268 368.717Q18.2445 368.577 18.0717 368.426Q17.8989 368.275 17.7363 368.113Q17.5738 367.951 17.4223 367.779Q17.2707 367.606 17.1307 367.424Q16.9908 367.242 16.8631 367.052Q16.7354 366.861 16.6204 366.662Q16.5055 366.464 16.4038 366.258Q16.3021 366.052 16.2141 365.84Q16.1261 365.628 16.0522 365.411Q15.9783 365.193 15.9188 364.971Q15.8593 364.75 15.8144 364.525Q15.7696 364.3 15.7396 364.072Q15.7096 363.844 15.6945 363.615Q15.6795 363.386 15.6795 363.157L15.6793 136.869Q15.6793 136.64 15.6944 136.411Q15.7094 136.182 15.7394 135.954Q15.7694 135.727 15.8143 135.502Q15.8592 135.276 15.9187 135.055Q15.9782 134.833 16.0521 134.616Q16.126 134.398 16.214 134.186Q16.302 133.974 16.4036 133.769Q16.5053 133.563 16.6203 133.364Q16.7352 133.165 16.8629 132.975Q16.9906 132.784 17.1306 132.602Q17.2705 132.42 17.4221 132.248Q17.5736 132.075 17.7362 131.913Q17.8987 131.751 18.0715 131.6Q18.2443 131.449 18.4266 131.309Q18.6089 131.17 18.8 131.043Q18.9911 130.915 19.1901 130.801L216.006 17.6325Q216.204 17.5186 216.409 17.4179Q216.614 17.3172 216.825 17.2301Q217.036 17.143 217.252 17.0698Q217.468 16.9966 217.689 16.9377Q217.91 16.8788 218.134 16.8344Q218.358 16.79 218.584 16.7603Q218.811 16.7306 219.039 16.7157Q219.266 16.7008 219.495 16.7008Q219.723 16.7008 219.951 16.7157Q220.179 16.7306 220.406 16.7603Q220.632 16.79 220.856 16.8344Q221.08 16.8788 221.301 16.9377Q221.521 16.9966 221.738 17.0698Q221.954 17.143 222.165 17.2301Q222.376 17.3172 222.581 17.4179Q222.786 17.5186 222.984 17.6325L222.984 17.6325Z" id="Polygon-Copy" fill="#213147" fill-rule="evenodd" stroke="none" filter="url(#filter_1)" />
    </g>
    <path d="M196.174 299.964C196.174 299.964 192.263 305.346 186.972 310.02C181.681 314.694 175.009 318.661 175.009 318.661C175.009 318.661 169.884 322.056 162.93 324.217C155.976 326.377 147.193 327.303 147.193 327.303L132.68 327.303L120.586 322.982L109.461 318.661L93.9786 306.934L82.4892 289.651L77.6515 278.246L75.8374 265.578L75.8374 248.571L78.8609 234.098L84.908 220.518L92.1645 210.642L100.934 202.618L112.12 194.593C112.12 194.593 118.232 191.816 124.43 190.273C130.628 188.729 136.913 188.421 136.913 188.421L148.564 188.421L156.868 189.038L168.237 192.742L180.452 198.914L198.412 216.013L287.485 306.934L355.817 237.801L355.817 361.869L389.076 361.869L389.076 153.237L287.485 256.936L220.362 188.421L202.221 172.119L188.35 163.434L173.8 156.941L154.202 153.237L128.462 153.237C128.462 153.237 120.741 154.009 112.12 156.941C103.499 159.873 93.9786 164.965 93.9786 164.965L77.6515 176.076L63.1386 191.507L52.0501 209.975L44.3926 226.691L40.1597 247.088L40.1597 265.578L45.5126 289.308L57.3154 315.461L72.8139 332.241L82.4892 340.568L93.9786 348.907L107.57 355.08L120.586 358.783L133.782 361.545L147.193 361.869L167.046 358.823L184.595 353.136C184.595 353.136 191.206 349.442 197.208 345.55C203.21 341.658 208.604 337.568 208.604 337.568C208.604 337.568 213.844 332.815 218.521 327.572C223.199 322.328 227.316 316.593 227.316 316.593L233.181 304.439L240.318 289.651L243.946 265.578C243.946 265.578 128.462 265.578 128.462 265.578C128.462 265.578 159.139 299.964 159.139 299.964L196.174 299.964Z" id="Line" fill="url(#gradient_1)" style="mix-blend-mode: color-burn;" fill-rule="evenodd" stroke="none" filter="url(#filter_1)" />
  </g>
</svg>